<?xml version="1.0" encoding="UTF-8"?>
<svg width="1440px" height="231px" viewBox="0 0 1440 231" version="1.1" xmlns="http://www.w3.org/2000/svg" xmlns:xlink="http://www.w3.org/1999/xlink">
    <!-- Generator: Sketch 57.1 (83088) - https://sketch.com -->
    <title>Group 12</title>
    <desc>Created with Sketch.</desc>
    <g id="Page-1" stroke="none" stroke-width="1" fill="none" fill-rule="evenodd">
        <g id="Desktop-HD" transform="translate(0.000000, -5655.000000)">
            <g id="Accreditation" transform="translate(-377.000000, 5540.000000)">
                <g id="Group-12" transform="translate(0.000000, 104.000000)">
                    <rect id="Rectangle-Copy-5" stroke="#FFFFFF" stroke-width="4" fill="#2B804D" transform="translate(1068.500000, 127.500000) rotate(-2.000000) translate(-1068.500000, -127.500000) " x="5" y="40" width="2127" height="175"></rect>
                    <g id="icons8-student_female" transform="translate(440.000000, 43.000000)" fill="#FFFFFF" fill-rule="nonzero">
                        <path d="M60.6640625,51.242236 L0,77.423816 L20.6640625,85.9008032 L20.6640625,92.6763878 C15.6640625,102.924835 10.6640625,124.446574 10.6640625,149.042847 L31.5625,149.042847 C37.5352355,156.562861 46.97296,164.415518 60.6640625,164.415518 C74.3551675,164.415518 83.7928925,156.562861 89.7656225,149.042847 L110.664062,149.042847 C110.664062,124.446574 105.664062,102.924835 100.664062,92.6763878 L100.664062,85.9008032 L110.664062,81.7974208 L110.664062,108.049059 L120.664062,108.049059 L120.664062,77.6940389 L121.328123,77.423816 L60.6640625,51.242236 Z M40.6640625,102.924835 L80.6640625,102.924835 C86.1640625,102.924835 90.6640625,107.536636 90.6640625,113.173282 L90.6640625,118.297506 C90.6640625,125.454519 88.7965425,131.284087 86.4160175,135.942047 C82.7785275,142.40788 74.3220725,154.167071 60.6640625,154.167071 C47.006051,154.167071 38.5495955,142.40788 34.9121095,135.942047 C32.5315845,131.284087 30.6640625,125.454519 30.6640625,118.297506 L30.6640625,113.173282 C30.6640625,107.536636 35.1140625,102.924835 40.6640625,102.924835 Z" id="Shape"></path>
                        <g id="icons8-syllabus" transform="translate(1218.000000, 0.000000)">
                            <path d="M45,0 C38.5,0 32.9984375,4.30434783 30.8984375,10.2484472 L0,10.2484472 L0,20.4968944 L0,102.484472 L10,102.484472 L40,102.484472 L40,95.668855 L34.1015625,92.2360248 L10,92.2360248 L10,20.4968944 L45,20.4968944 C42.25,20.4968944 40,18.1909938 40,15.3726708 C40,12.5543478 42.25,10.2484472 45,10.2484472 C47.75,10.2484472 50,12.5543478 50,15.3726708 C50,18.1909938 47.75,20.4968944 45,20.4968944 L80,20.4968944 L80,59.6491654 L90,63.7425387 L90,20.4968944 L90,10.2484472 L59.10156,10.2484472 C57.001565,4.30434783 51.5,0 45,0 Z M70,66.6149068 L35,80.9667349 L50,89.673913 L50,102.484472 L90,102.484472 L90,89.673913 L105,80.9667349 L70,66.6149068 Z" id="Shape"></path>
                        </g>
                    </g>
                    <text id="Accreditation-LA" font-family="Roboto-Medium, Roboto" font-size="70" font-weight="400" letter-spacing="-2.714586" fill="#FFFFFF">
                        <tspan x="857" y="153">Accreditation LA</tspan>
                    </text>
                </g>
            </g>
        </g>
    </g>
</svg>