<?xml version="1.0" encoding="UTF-8"?>
<svg width="55px" height="71px" viewBox="0 0 55 71" version="1.1" xmlns="http://www.w3.org/2000/svg" xmlns:xlink="http://www.w3.org/1999/xlink">
    <!-- Generator: Sketch 57.1 (83088) - https://sketch.com -->
    <title>Group 4</title>
    <desc>Created with Sketch.</desc>
    <g id="Page-1" stroke="none" stroke-width="1" fill="none" fill-rule="evenodd">
        <g id="Desktop-HD" transform="translate(-415.000000, -13.000000)">
            <g id="Group-4" transform="translate(416.000000, 14.000000)">
                <g id="Group" transform="translate(4.000000, 4.000000)">
                    <ellipse id="Oval" stroke="#FFFFFF" stroke-width="1.8" cx="22.9067797" cy="30.556962" rx="22.9067797" ry="30.556962"></ellipse>
                    <path d="M33.9828159,20.5365386 C34.1662838,13.3290011 30.4742717,9.72523238 22.9067797,9.72523238 C11.5555416,9.72523238 3.64586161,26.8726991 22.4576271,34.3952675 C38.9994552,41.6990029 29.3486107,52.6331505 22.9067797,52.6331505 C16.4649486,52.6331505 14.1318266,49.1964911 12.0455345,42.3556521 C11.2658195,42.3556521 10.5774202,42.3556521 9.98033681,42.3556521 C10.9267952,46.5608566 12.0455345,54.5057806 22.9067797,54.5057806 C36.2615868,54.5057806 44.1380079,34.3952675 22.9067797,27.5422986 C9.28305723,20.5365386 18.5429151,11.5419293 22.9067797,11.5419293 C27.2706442,11.5419293 31.4884448,13.744196 32.0396824,20.5365386 C32.5318451,20.5365386 33.1795563,20.5365386 33.9828159,20.5365386 Z" id="Path-2" fill="#FFFFFF"></path>
                </g>
                <ellipse id="Oval" stroke="#FFFFFF" stroke-width="1.086071" cx="26.5" cy="34.5" rx="26.5" ry="34.5"></ellipse>
            </g>
        </g>
    </g>
</svg>