<?xml version="1.0" encoding="UTF-8"?>
<svg width="36px" height="36px" viewBox="0 0 36 36" version="1.1" xmlns="http://www.w3.org/2000/svg" xmlns:xlink="http://www.w3.org/1999/xlink">
    <!-- Generator: Sketch 57.1 (83088) - https://sketch.com -->
    <title>data</title>
    <desc>Created with Sketch.</desc>
    <g id="Page-1" stroke="none" stroke-width="1" fill="none" fill-rule="evenodd">
        <g id="Desktop-HD" transform="translate(-123.000000, -5144.000000)" fill-rule="nonzero">
            <g id="Group-26" transform="translate(1.000000, 4829.000000)">
                <g id="Group-21" transform="translate(40.000000, 311.000000)">
                    <g id="data" transform="translate(82.000000, 4.000000)">
                        <rect id="Rectangle" fill="#1565C0" transform="translate(10.514965, 26.046335) rotate(-19.652668) translate(-10.514965, -26.046335) " x="9.51501671" y="18.5967202" width="1.99989658" height="14.8992295"></rect>
                        <polygon id="Path" fill="#1565C0" points="32.1 33.3 27.1 19.5 18 5.8 8.9 19.5 3.9 33.3 2.1 32.7 7.2 18.4 18 2.2 28.9 18.7 33.9 32.7"></polygon>
                        <rect id="Rectangle" fill="#1565C0" transform="translate(25.516255, 25.954110) rotate(-70.360051) translate(-25.516255, -25.954110) " x="18.0664396" y="24.9541348" width="14.8996308" height="1.99995045"></rect>
                        <path d="M22,4 C22,6.2 20.2,8 18,8 C15.8,8 14,6.2 14,4 C14,1.8 15.8,0 18,0 C20.2,0 22,1.8 22,4 Z" id="Path" fill="#1E88E5"></path>
                        <path d="M12,19 C12,21.2 10.2,23 8,23 C5.8,23 4,21.2 4,19 C4,16.8 5.8,15 8,15 C10.2,15 12,16.8 12,19 Z" id="Path" fill="#1E88E5"></path>
                        <path d="M32,19 C32,21.2 30.2,23 28,23 C25.8,23 24,21.2 24,19 C24,16.8 25.8,15 28,15 C30.2,15 32,16.8 32,19 Z" id="Path" fill="#1E88E5"></path>
                        <path d="M6,33 C6,34.7 4.7,36 3,36 C1.3,36 0,34.7 0,33 C0,31.3 1.3,30 3,30 C4.7,30 6,31.3 6,33 Z" id="Path" fill="#1E88E5"></path>
                        <path d="M16,33 C16,34.7 14.7,36 13,36 C11.3,36 10,34.7 10,33 C10,31.3 11.3,30 13,30 C14.7,30 16,31.3 16,33 Z" id="Path" fill="#1E88E5"></path>
                        <path d="M26,33 C26,34.7 24.7,36 23,36 C21.3,36 20,34.7 20,33 C20,31.3 21.3,30 23,30 C24.7,30 26,31.3 26,33 Z" id="Path" fill="#1E88E5"></path>
                        <path d="M36,33 C36,34.7 34.7,36 33,36 C31.3,36 30,34.7 30,33 C30,31.3 31.3,30 33,30 C34.7,30 36,31.3 36,33 Z" id="Path" fill="#1E88E5"></path>
                    </g>
                </g>
            </g>
        </g>
    </g>
</svg>