<?xml version="1.0" encoding="UTF-8"?>
<svg width="32px" height="34px" viewBox="0 0 32 34" version="1.1" xmlns="http://www.w3.org/2000/svg" xmlns:xlink="http://www.w3.org/1999/xlink">
    <!-- Generator: Sketch 57.1 (83088) - https://sketch.com -->
    <title>database</title>
    <desc>Created with Sketch.</desc>
    <g id="Page-1" stroke="none" stroke-width="1" fill="none" fill-rule="evenodd">
        <g id="Desktop-HD" transform="translate(-128.000000, -5266.000000)" fill="#8F5CEC" fill-rule="nonzero">
            <g id="Group-26" transform="translate(1.000000, 4829.000000)">
                <g id="Group-23" transform="translate(40.000000, 433.000000)">
                    <g id="database" transform="translate(87.000000, 4.000000)">
                        <path d="M30,12 L2,12 C0.9,12 0,12.9 0,14 L0,20 C0,21.1 0.9,22 2,22 L30,22 C31.1,22 32,21.1 32,20 L32,14 C32,12.9 31.1,12 30,12 Z" id="Path"></path>
                        <path d="M30,0 L2,0 C0.9,0 0,0.9 0,2 L0,8 C0,9.1 0.9,10 2,10 L30,10 C31.1,10 32,9.1 32,8 L32,2 C32,0.9 31.1,0 30,0 Z" id="Path"></path>
                        <path d="M30,24 L2,24 C0.9,24 0,24.9 0,26 L0,32 C0,33.1 0.9,34 2,34 L30,34 C31.1,34 32,33.1 32,32 L32,26 C32,24.9 31.1,24 30,24 Z" id="Path"></path>
                    </g>
                </g>
            </g>
        </g>
    </g>
</svg>