<?xml version="1.0" encoding="UTF-8"?>
<svg width="30px" height="40px" viewBox="0 0 30 40" version="1.1" xmlns="http://www.w3.org/2000/svg" xmlns:xlink="http://www.w3.org/1999/xlink">
    <!-- Generator: Sketch 57.1 (83088) - https://sketch.com -->
    <title>java</title>
    <desc>Created with Sketch.</desc>
    <g id="Page-1" stroke="none" stroke-width="1" fill="none" fill-rule="evenodd">
        <g id="Desktop-HD" transform="translate(-126.000000, -5081.000000)" fill-rule="nonzero">
            <g id="Group-26" transform="translate(1.000000, 4829.000000)">
                <g id="Group-20" transform="translate(40.000000, 250.000000)">
                    <g id="java" transform="translate(85.000000, 1.000000)">
                        <g id="Group" transform="translate(8.000000, 0.000000)" fill="#F44336">
                            <path d="M6.65,21.898 C5.652,20.289 4.928,18.955 3.925,16.443 C2.229,12.2 14.24,8.366 9.37,0.999 C11.481,6.088 1.793,9.234 0.893,13.472 C0.07,17.37 6.645,21.898 6.65,21.898 Z" id="Path"></path>
                            <path d="M6.878,14.27 C6.686,16.786 9.107,18.127 9.177,19.965 C9.233,21.461 7.73,22.708 7.73,22.708 C7.73,22.708 10.458,22.172 11.309,19.89 C12.254,17.356 9.475,15.621 9.761,13.592 C10.028,11.654 15.792,8.049 15.792,8.049 C15.792,8.049 7.311,8.611 6.878,14.27 Z" id="Path"></path>
                        </g>
                        <g id="Group" transform="translate(0.000000, 21.000000)" fill="#1565C0">
                            <path d="M23.084,1.055 C24.838,0.661 26.317,1.778 26.317,3.065 C26.317,5.966 22.296,8.708 22.296,8.708 C22.296,8.708 28.521,7.966 28.521,3.203 C28.521,0.053 25.464,-0.734 23.084,1.055 Z" id="Path"></path>
                            <path d="M20.129,3.395 C20.129,3.395 22.07,2.012 22.587,1.493 C17.824,2.504 6.949,2.64 6.949,1.762 C6.949,0.953 10.456,0.124 10.456,0.124 C10.456,0.124 2.683,0.012 2.683,2.305 C2.683,4.695 12.858,4.866 20.129,3.395 Z" id="Path"></path>
                            <path d="M18.935,5.571 C14.426,7.07 6.121,6.591 8.581,4.578 C7.383,4.578 5.607,5.541 5.607,6.467 C5.607,8.324 14.589,9.758 21.237,7.039 L18.935,5.571 Z" id="Path"></path>
                            <path d="M9.686,8.739 C8.05,8.739 6.991,9.793 6.991,10.561 C6.991,12.952 16.751,13.193 20.618,10.766 L18.16,9.134 C15.271,10.404 8.014,10.579 9.686,8.739 Z" id="Path"></path>
                            <path d="M27.281,12.632 C27.281,11.696 26.226,11.255 25.848,11.044 C28.076,16.417 3.531,16 3.531,12.828 C3.531,12.107 5.338,11.401 7.008,11.735 L5.588,10.896 C2.26,10.374 0,11.837 0,13.017 C0,18.52 27.281,18.255 27.281,12.632 Z" id="Path"></path>
                            <path d="M30,14.604 C25.854,18.699 15.341,20.191 4.769,17.661 C15.341,22.164 29.95,19.628 30,14.604 Z" id="Path"></path>
                        </g>
                    </g>
                </g>
            </g>
        </g>
    </g>
</svg>