<?xml version="1.0" encoding="UTF-8"?>
<svg width="32px" height="38px" viewBox="0 0 32 38" version="1.1" xmlns="http://www.w3.org/2000/svg" xmlns:xlink="http://www.w3.org/1999/xlink">
    <!-- Generator: Sketch 57.1 (83088) - https://sketch.com -->
    <title>linux</title>
    <desc>Created with Sketch.</desc>
    <g id="Page-1" stroke="none" stroke-width="1" fill="none" fill-rule="evenodd">
        <g id="Desktop-HD" transform="translate(-128.000000, -5326.000000)" fill-rule="nonzero">
            <g id="Group-26" transform="translate(1.000000, 4829.000000)">
                <g id="Group-24" transform="translate(40.000000, 494.000000)">
                    <g id="linux" transform="translate(87.000000, 3.000000)">
                        <polygon id="Path" fill="#ECEFF1" points="12.1 11.2 12.2 13.5 10.6 16.5 8.1 21.4 7.6 25.5 9.4 31.3 13.5 33.6 19.7 33.6 25.5 29.2 28.1 22.3 22.1 15 20.4 10.9"></polygon>
                        <path d="M26.3,16.9 C24.7,14.6 23.4,13.2 22.7,10.3 C22,7.4 22.9,8.2 22.3,5.7 C22,4.4 21.5,3.5 21,2.8 C20.4,2.1 19.7,1.7 19.3,1.6 C18.4,1.1 16.3,0.3 13.7,1.7 C11,3.1 11.3,6.1 11.8,12.2 C11.8,12.6 11.7,13.1 11.5,13.5 C11.1,14.4 10.4,15.2 9.8,15.9 C9.1,16.9 8.4,17.9 7.9,19 C6.7,21.3 5.6,24.2 5.9,25.3 C6.4,25.2 12.7,34.8 12.7,35 C13.1,34.9 14.8,34.9 16.3,34.9 C18.4,34.8 19.6,34.7 21.3,35.1 C21.3,34.8 21.2,34.5 21.2,34.2 C21.2,33.6 21.3,33.1 21.4,32.4 C21.5,31.9 21.6,31.4 21.7,30.8 C20.7,31.7 18.9,32.7 17.2,33 C15.7,33.3 13.2,32.8 12,31.3 C12.1,31.3 12.3,31.3 12.4,31.2 C12.7,31.1 13,31 13.1,30.8 C13.4,30.3 13.2,29.8 13,29.5 C12.8,29.2 11.3,28.1 10.6,27.5 C9.9,26.9 9.5,26.6 9.1,26.2 C9.1,26.2 8.5,25.6 8.3,25.4 C8.1,25.2 8,25 7.9,24.9 C7.7,24.4 7.6,23.8 7.7,23 C7.8,21.9 8.2,21 8.7,20 C8.9,19.6 9.4,18.8 9.4,18.8 C9.4,18.8 7.7,23 8.6,24.3 C8.6,24.3 8.7,23 9.1,21.7 C9.4,20.8 9.9,19.5 10.5,18.8 C11.1,18.1 12.6,15.5 12.7,13.9 C12.7,13.2 12.8,12.5 12.8,12 C12.4,11.6 19.4,10.6 19.8,11.7 C19.9,12.1 21.3,15.7 22.1,17.6 C22.5,18.5 23,19.3 23.3,20.3 C23.6,21.4 23.8,22.9 23.8,24.4 C23.8,24.7 23.8,25.2 23.7,25.7 C23.9,25.7 27.8,21.5 23.2,18 C23.2,18 26,19.3 26.1,21.9 C26.2,24 25.3,25.7 25.1,26 C25.2,26 27.2,26.9 27.3,26.9 C27.7,26.9 28.5,26.6 28.5,26.6 C28.6,26.3 28.9,25.5 28.9,25.2 C29.6,22.9 27.9,19.2 26.3,16.9 Z" id="Path" fill="#263238"></path>
                        <g id="Group" transform="translate(12.000000, 5.000000)" fill="#ECEFF1">
                            <ellipse id="Oval" cx="1.6" cy="3.3" rx="1.3" ry="2"></ellipse>
                            <ellipse id="Oval" cx="6.1" cy="3.2" rx="1.7" ry="2.3"></ellipse>
                        </g>
                        <g id="Group" transform="translate(12.000000, 7.000000)" fill="#212121">
                            <ellipse id="Oval" transform="translate(1.631770, 1.524630) rotate(-97.203901) translate(-1.631770, -1.524630) " cx="1.63177" cy="1.52463" rx="1.19999254" ry="1"></ellipse>
                            <ellipse id="Oval" cx="6" cy="1.6" rx="1" ry="1.3"></ellipse>
                        </g>
                        <g id="Group" transform="translate(0.000000, 9.000000)" fill="#FFC107">
                            <path d="M31.3,21.6 C30.9,21.4 30.2,21.1 29.6,20.2 C29.3,19.7 29.4,18.3 28.9,17.7 C28.6,17.3 28.2,17.5 28.1,17.5 C27.2,17.7 25.1,19.1 23.7,17.5 C23.5,17.3 23.2,17 22.7,17 C22.2,17 22,17.2 21.8,17.6 C21.6,18 21.6,18.3 21.6,19.3 C21.6,20.1 21.6,21 21.5,21.7 C21.3,23.4 21,24.4 21,25.4 C21,26.5 21.3,27.2 21.7,27.5 C22,27.8 22.5,28 23.6,28 C24.7,28 25.4,27.6 26.1,26.9 C26.6,26.4 27,26.2 28.4,25.2 C29.5,24.5 31.2,23.6 31.5,23.3 C31.7,23.1 32,23 32,22.4 C32,21.9 31.6,21.7 31.3,21.6 Z" id="Path"></path>
                            <path d="M11.2,21.9 C10.2,20.3 10.1,20 9.4,19 C8.8,18 7.5,16.1 6.7,16.1 C6.1,16.1 5.8,16.4 5.4,16.8 C5,17.2 4.6,18.1 3.9,18.6 C3.3,19.1 1.6,19 1.2,19.6 C0.8,20.2 1.6,21.1 1.6,22.6 C1.6,23.2 1.1,23.6 1,24 C0.9,24.5 0.8,24.8 1,25.2 C1.4,25.8 1.9,26 5.3,26.7 C7.1,27.1 8.8,28.1 9.9,28.2 C11,28.3 12.9,28.2 12.9,25.5 C13,23.9 12.1,23.5 11.2,21.9 Z" id="Path"></path>
                            <path d="M13.1,3.8 C12.5,3.4 12,3 12,2.4 C12,1.8 12.4,1.6 13,1.1 C13.1,1 14.2,-1.77635684e-15 15.3,-1.77635684e-15 C16.4,-1.77635684e-15 17.7,0.7 18.2,0.9 C19.1,1.1 20,1.3 19.9,2 C19.8,3 19.7,3.2 18.7,3.7 C18,3.9 16.7,5 15.8,5 C15.4,5 14.8,5 14.4,4.9 C14.1,4.8 13.6,4.3 13.1,3.8 Z" id="Path"></path>
                        </g>
                        <g id="Group" transform="translate(12.000000, 9.000000)" fill="#634703">
                            <path d="M0.9,3 C1.1,3.2 1.4,3.4 1.7,3.5 C1.9,3.6 2.2,3.7 2.2,3.7 C2.6,3.7 2.9,3.7 3.1,3.7 C3.6,3.7 4.3,3.5 5,3.1 C5.7,2.8 5.8,2.6 6.3,2.4 C6.8,2.1 7.3,1.8 7.1,1.7 C6.9,1.6 6.7,1.7 6,2.1 C5.4,2.5 4.9,2.7 4.3,3 C4,3.1 3.6,3.3 3.3,3.3 C3,3.3 2.7,3.3 2.4,3.3 C2.1,3.3 1.9,3.2 1.6,3.1 C1.4,3 1.3,2.9 1.2,2.9 C1,2.8 0.6,2.4 0.4,2.3 C0.4,2.3 0.2,2.3 0.3,2.4 C0.6,2.7 0.7,2.8 0.9,3 Z" id="Path"></path>
                            <path d="M3.9,0.8 C4,1 4.2,1 4.3,1.1 C4.4,1.2 4.5,1.2 4.5,1.2 C4.6,1.1 4.5,0.9 4.4,0.9 C4.4,0.7 3.9,0.7 3.9,0.8 Z" id="Path"></path>
                            <path d="M2.3,1 C2.3,1.1 2.5,1.2 2.5,1.1 C2.6,1 2.7,0.9 2.8,0.9 C3,0.8 2.9,0.7 2.6,0.7 C2.4,0.8 2.4,0.9 2.3,1 Z" id="Path"></path>
                        </g>
                        <path d="M24,27.7 C24,27.8 24,27.9 24,28 C24.2,28.4 24.7,28.5 25.1,28.5 C25.7,28.5 26.3,28.1 26.6,27.7 C26.6,27.6 26.7,27.5 26.8,27.4 C27,27.1 27.1,26.9 27.2,26.8 C27.2,26.8 27.1,26.7 27.1,26.6 C27,26.4 26.7,26.2 26.3,26.1 C26,26 25.5,25.9 25.3,25.9 C24.4,25.8 23.9,26.1 23.6,26.4 C23.6,26.4 23.7,26.4 23.7,26.5 C23.9,26.7 24,26.9 24,27.2 C24.1,27.4 24,27.5 24,27.7 Z" id="Path" fill="#455A64"></path>
                    </g>
                </g>
            </g>
        </g>
    </g>
</svg>