<?xml version="1.0" encoding="UTF-8"?>
<svg width="42px" height="40px" viewBox="0 0 42 40" version="1.1" xmlns="http://www.w3.org/2000/svg" xmlns:xlink="http://www.w3.org/1999/xlink">
    <!-- Generator: Sketch 57.1 (83088) - https://sketch.com -->
    <title>web</title>
    <desc>Created with Sketch.</desc>
    <g id="Page-1" stroke="none" stroke-width="1" fill="none" fill-rule="evenodd">
        <g id="Desktop-HD" transform="translate(-123.000000, -5203.000000)" fill="#455A64" fill-rule="nonzero">
            <g id="Group-26" transform="translate(1.000000, 4829.000000)">
                <g id="Group-22" transform="translate(40.000000, 372.000000)">
                    <g id="web" transform="translate(82.000000, 2.000000)">
                        <path d="M41.83,23.644 L34.592,1.365 C34.327,0.552 33.568,0 32.712,0 L9.287,0 C8.432,0 7.672,0.552 7.407,1.365 L0.169,23.644 C-0.096,24.459 0.194,25.35 0.887,25.854 L19.838,39.623 C20.531,40.126 21.469,40.126 22.162,39.623 L41.112,25.854 C41.805,25.35 42.095,24.458 41.83,23.644 Z M21.448,29 C16.229,29 14.534,25.473 14.029,23.837 C13.903,23.431 14.204,23.021 14.621,23.021 L18.683,23.021 C18.873,23.021 19.051,23.106 19.165,23.26 C19.452,23.647 20.141,24.37 21.29,24.37 C22.861,24.37 24.039,22.954 24.039,21.605 C24.039,20.256 22.933,19 21.149,19 C19.909,19 19.203,19.746 18.888,20.262 C18.747,20.492 18.476,20.596 18.219,20.53 L15.025,19.7 C14.714,19.619 14.515,19.308 14.568,18.984 L16.28,8.526 C16.33,8.223 16.587,8 16.889,8 L26.382,8 C26.724,8 27,8.283 27,8.631 L27,11.369 C27,11.718 26.723,12 26.382,12 L20.629,12 C20.414,12 20.231,12.162 20.202,12.38 L19.954,14.577 C19.899,15.041 20.336,15.386 20.771,15.245 C21.18,15.111 21.714,15 22.357,15 C24.962,15 29,16.239 29,21.271 C29,26.302 24.924,29 21.448,29 Z" id="Shape"></path>
                    </g>
                </g>
            </g>
        </g>
    </g>
</svg>